<svg preserveAspectRatio="none" width="100%" height="100%" overflow="visible" style="display: block;" viewBox="0 0 13.9953 16.125" fill="none" xmlns="http://www.w3.org/2000/svg">
<g id="fa6-solid:user-doctor" clip-path="url(#clip0_0_122)">
<path id="Vector" d="M6.99764 8.0625C8.05815 8.0625 9.07522 7.63778 9.82512 6.88177C10.575 6.12577 10.9963 5.1004 10.9963 4.03125C10.9963 2.9621 10.575 1.93673 9.82512 1.18073C9.07522 0.42472 8.05815 0 6.99764 0C5.93713 0 4.92006 0.42472 4.17017 1.18073C3.42027 1.93673 2.99899 2.9621 2.99899 4.03125C2.99899 5.1004 3.42027 6.12577 4.17017 6.88177C4.92006 7.63778 5.93713 8.0625 6.99764 8.0625ZM3.99865 9.80098C1.68693 10.4844 0 12.6386 0 15.1896C0 15.7061 0.415485 16.125 0.927812 16.125H13.0675C13.5798 16.125 13.9953 15.7061 13.9953 15.1896C13.9953 12.6386 12.3084 10.4844 9.99663 9.80098V11.4009C10.8588 11.6245 11.4961 12.415 11.4961 13.3535V14.6133C11.4961 14.8904 11.2712 15.1172 10.9963 15.1172H10.4965C10.2216 15.1172 9.99663 14.8904 9.99663 14.6133C9.99663 14.3361 10.2216 14.1094 10.4965 14.1094V13.3535C10.4965 12.7961 10.0497 12.3457 9.4968 12.3457C8.94386 12.3457 8.49714 12.7961 8.49714 13.3535V14.1094C8.77204 14.1094 8.99697 14.3361 8.99697 14.6133C8.99697 14.8904 8.77204 15.1172 8.49714 15.1172H7.9973C7.7224 15.1172 7.49747 14.8904 7.49747 14.6133V13.3535C7.49747 12.415 8.13476 11.6245 8.99697 11.4009V9.60256C8.80953 9.58367 8.61897 9.57422 8.42529 9.57422H5.57C5.37631 9.57422 5.18575 9.58367 4.99832 9.60256V11.6623C5.71995 11.8796 6.24789 12.5536 6.24789 13.3535C6.24789 14.3267 5.46378 15.1172 4.49848 15.1172C3.53318 15.1172 2.74907 14.3267 2.74907 13.3535C2.74907 12.5536 3.27702 11.8796 3.99865 11.6623V9.80098ZM4.49848 14.1094C4.69733 14.1094 4.88803 14.0297 5.02864 13.888C5.16924 13.7462 5.24823 13.554 5.24823 13.3535C5.24823 13.153 5.16924 12.9608 5.02864 12.819C4.88803 12.6773 4.69733 12.5977 4.49848 12.5977C4.29964 12.5977 4.10894 12.6773 3.96833 12.819C3.82773 12.9608 3.74874 13.153 3.74874 13.3535C3.74874 13.554 3.82773 13.7462 3.96833 13.888C4.10894 14.0297 4.29964 14.1094 4.49848 14.1094Z" fill="var(--fill-0, #DD692C)"/>
</g>
<defs>
<clipPath id="clip0_0_122">
<rect width="13.9953" height="16.125" fill="white"/>
</clipPath>
</defs>
</svg>
