<svg preserveAspectRatio="none" width="100%" height="100%" overflow="visible" style="display: block;" viewBox="0 0 18 18" fill="none" xmlns="http://www.w3.org/2000/svg">
<g id="medicine-02">
<path id="Vector" fill-rule="evenodd" clip-rule="evenodd" d="M10.9151 1.42938C12.6439 0.414459 14.8465 1.02384 15.8341 2.76327C16.6252 4.15655 16.4042 5.85973 15.3998 6.99818C15.1337 7.29992 14.6716 7.33013 14.3679 7.06564C14.0642 6.80115 14.0338 6.34213 14.3 6.04038C14.9044 5.35524 15.0392 4.32077 14.5603 3.47721C13.967 2.43239 12.6684 2.0878 11.659 2.68037L8.57115 4.49321L9.26325 5.65313C9.46927 5.99829 9.3546 6.44398 9.0072 6.6486C8.6598 6.85322 8.21123 6.73931 8.00528 6.39415L7.31204 5.23241L4.22231 7.04631C3.20266 7.6449 2.84085 8.98553 3.43948 10.0398C3.79651 10.6686 4.40888 11.0428 5.05793 11.1137C5.45938 11.1576 5.74902 11.5165 5.70488 11.9153C5.66073 12.3142 5.29951 12.602 4.89807 12.5581C3.79147 12.4372 2.75916 11.799 2.16568 10.7538C1.18345 9.02385 1.75981 6.8042 3.47831 5.79532L10.9151 1.42938Z" fill="var(--fill-0, #DD692C)"/>
<path id="Vector_2" fill-rule="evenodd" clip-rule="evenodd" d="M14.8889 9.24885C15.0953 9.12968 15.1985 9.07005 15.2153 8.96408C15.2321 8.85803 15.157 8.7747 15.0068 8.60798C13.4414 6.8703 10.8236 6.40021 8.7168 7.61663C6.60998 8.83298 5.70822 11.335 6.4304 13.5595C6.49968 13.773 6.53432 13.8797 6.63452 13.9182C6.73472 13.9567 6.83794 13.8971 7.04435 13.7779L14.8889 9.24885ZM15.4515 10.223C15.6579 10.1039 15.7611 10.0443 15.8613 10.0828C15.9615 10.1213 15.9962 10.2279 16.0655 10.4413C16.7882 12.666 15.8864 15.1686 13.7793 16.3851C11.6722 17.6016 9.05407 17.1313 7.48875 15.3931C7.33862 15.2263 7.26356 15.1429 7.28034 15.037C7.29713 14.931 7.40032 14.8714 7.60672 14.7523L15.4515 10.223Z" fill="var(--fill-0, #DD692C)"/>
</g>
</svg>
