<svg preserveAspectRatio="none" width="100%" height="100%" overflow="visible" style="display: block;" viewBox="0 0 18 18" fill="none" xmlns="http://www.w3.org/2000/svg">
<g id="note-01">
<path id="Vector" fill-rule="evenodd" clip-rule="evenodd" d="M5.25 0.84375C5.66421 0.84375 6 1.17954 6 1.59375V3.09375C6 3.50796 5.66421 3.84375 5.25 3.84375C4.83579 3.84375 4.5 3.50796 4.5 3.09375V1.59375C4.5 1.17954 4.83579 0.84375 5.25 0.84375ZM9 0.84375C9.41422 0.84375 9.75 1.17954 9.75 1.59375V3.09375C9.75 3.50796 9.41422 3.84375 9 3.84375C8.58578 3.84375 8.25 3.50796 8.25 3.09375V1.59375C8.25 1.17954 8.58578 0.84375 9 0.84375ZM12.75 0.84375C13.1642 0.84375 13.5 1.17954 13.5 1.59375V3.09375C13.5 3.50796 13.1642 3.84375 12.75 3.84375C12.3358 3.84375 12 3.50796 12 3.09375V1.59375C12 1.17954 12.3358 0.84375 12.75 0.84375Z" fill="var(--fill-0, #DD692C)"/>
<path id="Vector_2" fill-rule="evenodd" clip-rule="evenodd" d="M10.1669 1.78125H7.83322C6.63131 1.78124 5.67202 1.78123 4.91971 1.88237C4.14251 1.98686 3.50245 2.2085 2.9961 2.71485C2.48974 3.22121 2.26811 3.86126 2.16362 4.63846C2.06248 5.39077 2.06248 6.34999 2.0625 7.5519V11.3855C2.06248 12.5875 2.06248 13.5467 2.16362 14.299C2.26811 15.0763 2.48974 15.7163 2.9961 16.2226C3.50245 16.729 4.14251 16.9506 4.91971 17.0551C5.67202 17.1562 6.63124 17.1562 7.83322 17.1562H10.1668C11.3687 17.1562 12.328 17.1562 13.0803 17.0551C13.8575 16.9506 14.4976 16.729 15.0039 16.2226C15.5102 15.7163 15.7318 15.0763 15.8364 14.299C15.9375 13.5467 15.9375 12.5875 15.9375 11.3855V7.55197C15.9375 6.34999 15.9375 5.39077 15.8364 4.63846C15.7318 3.86126 15.5102 3.22121 15.0039 2.71485C14.4976 2.2085 13.8575 1.98686 13.0803 1.88237C12.328 1.78123 11.3688 1.78124 10.1669 1.78125ZM6 6.84375C5.58579 6.84375 5.25 7.17954 5.25 7.59375C5.25 8.00797 5.58579 8.34375 6 8.34375H12C12.4142 8.34375 12.75 8.00797 12.75 7.59375C12.75 7.17954 12.4142 6.84375 12 6.84375H6ZM6 10.5938C5.58579 10.5938 5.25 10.9295 5.25 11.3438C5.25 11.758 5.58579 12.0938 6 12.0938H9C9.41423 12.0938 9.75 11.758 9.75 11.3438C9.75 10.9295 9.41423 10.5938 9 10.5938H6Z" fill="var(--fill-0, #DD692C)"/>
</g>
</svg>
