<svg preserveAspectRatio="none" width="100%" height="100%" overflow="visible" style="display: block;" viewBox="0 0 9 13" fill="none" xmlns="http://www.w3.org/2000/svg">
<g id="Frame 10">
<path id="&#244;&#128;&#142;&#161;" d="M1.29341 13H7.70659C8.5756 13 9 12.5736 9 11.6407V6.74987C9 5.9103 8.6497 5.47719 7.92889 5.4039V3.72476C7.92889 1.21271 6.26497 0 4.5 0C2.73503 0 1.07111 1.21271 1.07111 3.72476V5.43721C0.410928 5.53716 0 5.96361 0 6.74987V11.6407C0 12.5736 0.424401 13 1.29341 13ZM2.15569 3.58483C2.15569 1.91235 3.24027 1.02614 4.5 1.02614C5.75973 1.02614 6.84431 1.91235 6.84431 3.58483V5.39723L2.15569 5.4039V3.58483Z" fill="var(--fill-0, #020202)"/>
</g>
</svg>
