<svg preserveAspectRatio="none" width="100%" height="100%" overflow="visible" style="display: block;" viewBox="0 0 24 24" fill="none" xmlns="http://www.w3.org/2000/svg">
<g id="vuesax/bold/scan">
<path id="Vector" d="M2.77 10C2.34 10 2 9.66 2 9.23V6.92C2 4.21 4.21 2 6.92 2H9.23C9.66 2 10 2.34 10 2.77C10 3.2 9.66 3.54 9.23 3.54H6.92C5.05 3.54 3.54 5.06 3.54 6.92V9.23C3.54 9.66 3.19 10 2.77 10Z" fill="var(--fill-0, #434343)"/>
<path id="Vector_2" d="M21.23 10C20.81 10 20.46 9.66 20.46 9.23V6.92C20.46 5.05 18.94 3.54 17.08 3.54H14.77C14.34 3.54 14 3.19 14 2.77C14 2.35 14.34 2 14.77 2H17.08C19.79 2 22 4.21 22 6.92V9.23C22 9.66 21.66 10 21.23 10Z" fill="var(--fill-0, #434343)"/>
<path id="Vector_3" d="M17.08 22H15.69C15.27 22 14.92 21.66 14.92 21.23C14.92 20.81 15.26 20.46 15.69 20.46H17.08C18.95 20.46 20.46 18.94 20.46 17.08V15.7C20.46 15.28 20.8 14.93 21.23 14.93C21.65 14.93 22 15.27 22 15.7V17.08C22 19.79 19.79 22 17.08 22Z" fill="var(--fill-0, #434343)"/>
<path id="Vector_4" d="M9.23 22H6.92C4.21 22 2 19.79 2 17.08V14.77C2 14.34 2.34 14 2.77 14C3.2 14 3.54 14.34 3.54 14.77V17.08C3.54 18.95 5.06 20.46 6.92 20.46H9.23C9.65 20.46 10 20.8 10 21.23C10 21.66 9.66 22 9.23 22Z" fill="var(--fill-0, #434343)"/>
<path id="Vector_5" d="M7.16667 12.2373V12.6102C7.16667 14.4859 8.4804 16 10.1078 16H14.2255C15.8529 16 17.1667 14.4859 17.1667 12.6102V12.2373C17.1667 12.1017 17.0784 12 16.9608 12H7.37255C7.25491 12 7.16667 12.1017 7.16667 12.2373Z" fill="var(--fill-0, #434343)"/>
<path id="Vector_6" d="M7.16667 11.7627V11.3898C7.16667 9.51412 8.4804 8 10.1078 8H14.2255C15.8529 8 17.1667 9.51412 17.1667 11.3898V11.7627C17.1667 11.8983 17.0784 12 16.9608 12H7.37255C7.25491 12 7.16667 11.8983 7.16667 11.7627Z" fill="var(--fill-0, #434343)"/>
<path id="Vector_7" opacity="0" d="M0 24L24 24L24 0L0 0L0 24Z" fill="var(--fill-0, #434343)"/>
</g>
</svg>
