<svg width="24" height="24" viewBox="0 0 24 24" fill="none" xmlns="http://www.w3.org/2000/svg">
<path d="M2.77 10C2.34 10 2 9.66 2 9.23V6.92C2 4.21 4.21 2 6.92 2H9.23C9.66 2 10 2.34 10 2.77C10 3.2 9.66 3.54 9.23 3.54H6.92C5.05 3.54 3.54 5.06 3.54 6.92V9.23C3.54 9.66 3.19 10 2.77 10Z" fill="#DD692C"/>
<path d="M21.23 10C20.81 10 20.46 9.66 20.46 9.23V6.92C20.46 5.05 18.94 3.54 17.08 3.54H14.77C14.34 3.54 14 3.19 14 2.77C14 2.35 14.34 2 14.77 2H17.08C19.79 2 22 4.21 22 6.92V9.23C22 9.66 21.66 10 21.23 10Z" fill="#DD692C"/>
<path d="M17.08 22H15.69C15.27 22 14.92 21.66 14.92 21.23C14.92 20.81 15.26 20.46 15.69 20.46H17.08C18.95 20.46 20.46 18.94 20.46 17.08V15.7C20.46 15.28 20.8 14.93 21.23 14.93C21.65 14.93 22 15.27 22 15.7V17.08C22 19.79 19.79 22 17.08 22Z" fill="#DD692C"/>
<path d="M9.23 22H6.92C4.21 22 2 19.79 2 17.08V14.77C2 14.34 2.34 14 2.77 14C3.2 14 3.54 14.34 3.54 14.77V17.08C3.54 18.95 5.06 20.46 6.92 20.46H9.23C9.65 20.46 10 20.8 10 21.23C10 21.66 9.66 22 9.23 22Z" fill="#DD692C"/>
<rect x="8" y="9" width="8" height="6" rx="2" fill="#DD692C"/>
</svg>
