<svg preserveAspectRatio="none" width="100%" height="100%" overflow="visible" style="display: block;" viewBox="0 0 17.5 17.5" fill="none" xmlns="http://www.w3.org/2000/svg">
<path id="Vector" d="M13.387 15.2676C12.2477 13.9952 10.5924 13.1944 8.75 13.1944C6.90764 13.1944 5.25215 13.9952 4.11285 15.2676M8.75 16.75C4.33172 16.75 0.75 13.1683 0.75 8.75C0.75 4.33172 4.33172 0.75 8.75 0.75C13.1683 0.75 16.75 4.33172 16.75 8.75C16.75 13.1683 13.1683 16.75 8.75 16.75ZM8.75 10.5278C7.27724 10.5278 6.08333 9.33387 6.08333 7.86111C6.08333 6.38835 7.27724 5.19444 8.75 5.19444C10.2228 5.19444 11.4167 6.38835 11.4167 7.86111C11.4167 9.33387 10.2228 10.5278 8.75 10.5278Z" stroke="var(--stroke-0, #636564)" stroke-width="1.5" stroke-linecap="round" stroke-linejoin="round"/>
</svg>
