<svg preserveAspectRatio="none" width="100%" height="100%" overflow="visible" style="display: block;" viewBox="0 0 77.4012 13" fill="none" xmlns="http://www.w3.org/2000/svg">
<g id="Right Side">
<g id="_StatusBar-battery">
<path id="Outline" opacity="0.35" d="M54 0.5H71C72.933 0.5 74.5 2.067 74.5 4V9C74.5 10.933 72.933 12.5 71 12.5H54C52.067 12.5 50.5 10.933 50.5 9V4C50.5 2.067 52.067 0.5 54 0.5Z" stroke="var(--stroke-0, black)"/>
<path id="Battery End" opacity="0.4" d="M76 5V9.22034C76.8491 8.86291 77.4012 8.0314 77.4012 7.11017C77.4012 6.18894 76.8491 5.35744 76 5" fill="var(--fill-0, black)"/>
<path id="Fill" d="M52 4C52 2.89543 52.8954 2 54 2H71C72.1046 2 73 2.89543 73 4V9C73 10.1046 72.1046 11 71 11H54C52.8954 11 52 10.1046 52 9V4Z" fill="var(--fill-0, black)"/>
</g>
<path id="Wifi" d="M32.1148 9.91899C33.5347 8.69317 35.6149 8.6932 37.0348 9.91899C37.1062 9.98493 37.148 10.0785 37.15 10.1768C37.1519 10.2751 37.1132 10.3697 37.0445 10.4385L34.8219 12.7286C34.7567 12.7959 34.6675 12.834 34.5748 12.834C34.4821 12.834 34.3929 12.7958 34.3277 12.7286L32.1041 10.4385C32.0356 10.3697 31.9976 10.2749 31.9996 10.1768C32.0016 10.0785 32.0434 9.98487 32.1148 9.91899ZM29.109 7.17876C32.1681 4.27416 36.9063 4.27416 39.9654 7.17876C40.0342 7.24684 40.0738 7.34069 40.0748 7.43852C40.0757 7.53638 40.0379 7.63081 39.9703 7.70024L38.6852 9.02544C38.5528 9.16071 38.3386 9.16381 38.2027 9.03227C37.1982 8.10375 35.8909 7.58883 34.5357 7.58891C33.1815 7.58953 31.8755 8.1044 30.8717 9.03227C30.7358 9.1638 30.5216 9.16071 30.3893 9.02544L29.1051 7.70024C29.0373 7.63089 28.9988 7.53644 28.9996 7.43852C29.0005 7.34066 29.0401 7.24683 29.109 7.17876ZM26.107 4.44243C30.7989 -0.147355 38.2012 -0.147355 42.8932 4.44243C42.961 4.51061 42.999 4.60403 42.9996 4.70122C43 4.79816 42.9629 4.89115 42.8961 4.96001L41.609 6.28618C41.4764 6.42201 41.2611 6.42395 41.1266 6.29008C39.339 4.55536 36.9671 3.58808 34.5006 3.58794C32.0338 3.58793 29.6615 4.55522 27.8736 6.29008C27.7392 6.42416 27.5237 6.42222 27.3912 6.28618L26.1041 4.96001C26.0371 4.89097 25.999 4.79744 25.9996 4.70024C26.0003 4.60322 26.0392 4.51045 26.107 4.44243Z" fill="var(--fill-0, black)"/>
<g id="Icon / Mobile Signal">
<path d="M10 4C10 3.44772 10.4477 3 11 3H12C12.5523 3 13 3.44772 13 4V12C13 12.5523 12.5523 13 12 13H11C10.4477 13 10 12.5523 10 12V4Z" fill="var(--fill-0, black)"/>
<path d="M15 2C15 1.44772 15.4477 1 16 1H17C17.5523 1 18 1.44772 18 2V12C18 12.5523 17.5523 13 17 13H16C15.4477 13 15 12.5523 15 12V2Z" fill="var(--fill-0, black)"/>
<path d="M5 7.5C5 6.94772 5.44772 6.5 6 6.5H7C7.55228 6.5 8 6.94772 8 7.5V12C8 12.5523 7.55228 13 7 13H6C5.44772 13 5 12.5523 5 12V7.5Z" fill="var(--fill-0, black)"/>
<path d="M0 10C0 9.44772 0.447715 9 1 9H2C2.55228 9 3 9.44772 3 10V12C3 12.5523 2.55228 13 2 13H1C0.447715 13 0 12.5523 0 12V10Z" fill="var(--fill-0, black)"/>
</g>
</g>
</svg>
