<svg width="39" height="39" viewBox="0 0 39 39" fill="none" xmlns="http://www.w3.org/2000/svg">
<rect width="39" height="39" rx="19.5" fill="#FDFDFD"/>
<path d="M25.875 12.417C26.2662 12.417 26.583 12.7338 26.583 13.125V16.6816C26.5828 16.694 26.582 16.7064 26.5811 16.7188C26.5802 16.7312 26.5787 16.7436 26.5772 16.7559C26.5761 16.7642 26.5746 16.7729 26.5733 16.7812C26.5711 16.7946 26.5684 16.8082 26.5654 16.8213C26.564 16.8275 26.5621 16.8336 26.5606 16.8398C26.5514 16.8763 26.54 16.9123 26.5254 16.9463C26.4909 17.0265 26.4415 17.1024 26.376 17.168C26.3199 17.224 26.2558 17.2675 26.1885 17.3008C26.1453 17.3222 26.0994 17.3393 26.0518 17.3516C26.0441 17.3535 26.0361 17.3557 26.0283 17.3574C26.0155 17.3603 26.0024 17.3621 25.9893 17.3643C25.981 17.3656 25.9722 17.3681 25.9639 17.3691C25.9517 17.3707 25.9392 17.3712 25.9268 17.3721C25.9144 17.373 25.9021 17.3738 25.8897 17.374C25.8848 17.3741 25.8799 17.375 25.875 17.375H22.333C21.9421 17.3748 21.6252 17.0579 21.625 16.667C21.625 16.2759 21.942 15.9582 22.333 15.958H24.1651L23.7832 15.5762L23.5625 15.374C22.4375 14.3904 20.9969 13.833 19.5 13.833C18.3793 13.833 17.2834 14.1664 16.3516 14.7891C15.42 15.4116 14.6935 16.2959 14.2647 17.3311C13.8358 18.3664 13.7238 19.5063 13.9424 20.6055C14.1611 21.7046 14.7007 22.7144 15.4932 23.5068C16.2856 24.2993 17.2954 24.8389 18.3945 25.0576C19.4937 25.2762 20.6336 25.1642 21.669 24.7354C22.7041 24.3065 23.5884 23.58 24.211 22.6484C24.8336 21.7166 25.167 20.6208 25.167 19.5C25.167 19.1088 25.4838 18.792 25.875 18.792C26.2662 18.792 26.583 19.1088 26.583 19.5C26.583 20.9009 26.168 22.2707 25.3897 23.4355C24.6114 24.6003 23.5052 25.5088 22.211 26.0449C20.9168 26.581 19.4921 26.7205 18.1182 26.4473C16.7442 26.1739 15.4818 25.4993 14.4912 24.5088C13.5007 23.5182 12.8261 22.2558 12.5527 20.8818C12.2795 19.5079 12.4191 18.0833 12.9551 16.7891C13.4912 15.4948 14.3997 14.3887 15.5645 13.6104C16.7293 12.832 18.0991 12.417 19.5 12.417C21.3499 12.417 23.1192 13.1047 24.4951 14.3076L24.7647 14.5557L24.7754 14.5654L25.167 14.957V13.125C25.167 12.7338 25.4838 12.417 25.875 12.417Z" fill="#434343"/>
</svg>
