<svg preserveAspectRatio="none" width="100%" height="100%" overflow="visible" style="display: block;" viewBox="0 0 17 17.7045" fill="none" xmlns="http://www.w3.org/2000/svg">
<g id="Frame 8205" clip-path="url(#clip0_0_56)">
<path id="Vector" d="M7.36098 0.0521818C13.7891 -0.586861 18.1545 4.73047 16.7296 11.2354C16.2515 13.4184 14.9296 14.7749 13.2812 16.1307C9.83533 18.9649 3.85115 17.837 1.47976 13.824C1.47106 14.4493 1.52385 16.2384 1.25152 16.6755C1.04707 16.7975 0.427593 16.7075 0.152359 16.6847C-0.034558 14.5059 -0.0159072 13.1651 0.0331288 11.0044C1.58271 10.9539 3.37186 10.938 4.93633 11.0513C5.11271 11.0641 5.38543 11.2071 5.53505 11.3221C6.34592 12.6602 3.01385 12.1189 2.44571 12.4803L2.40887 12.6463C2.48526 12.8767 2.51353 13.0289 2.64673 13.2341C3.09162 13.6126 3.47138 14.1249 3.90612 14.5364C7.58725 18.0203 14.742 15.8415 15.3628 10.5018C15.5892 8.55407 15.5385 5.91831 14.3136 4.3078C13.2865 2.95743 11.9365 1.91436 10.2248 1.78569C8.38922 1.65696 5.74701 1.51027 4.2903 2.79299C2.07728 4.74166 1.67122 5.67169 1.33225 8.48377C0.95519 8.51032 0.398528 8.48233 0.00577816 8.47298C0.178261 6.18773 0.538056 4.87217 2.04123 3.05327C3.37872 1.43477 5.28816 0.227881 7.36098 0.0521818Z" fill="var(--fill-0, #2D2D2F)"/>
<path id="Vector_2" d="M8.30108 5.26251C8.56849 5.22362 8.88362 5.15126 9.1262 5.28221C9.57681 5.86852 9.32349 8.98149 9.49423 10.2549C10.1666 11.3172 11.7087 12.4682 10.7389 13.8258C10.227 13.7381 9.601 13.0875 9.23297 12.6283C8.05582 11.1592 7.99467 9.68565 8.0003 7.68468C8.00161 7.22155 8.02757 5.60956 8.30108 5.26251Z" fill="var(--fill-0, #323233)"/>
</g>
<defs>
<clipPath id="clip0_0_56">
<rect width="17" height="17.7045" fill="white"/>
</clipPath>
</defs>
</svg>
